<?xml version="1.0" encoding="utf-8"?>
<!-- Generator: Adobe Illustrator 25.0.1, SVG Export Plug-In . SVG Version: 6.00 Build 0)  -->
<svg version="1.1" id="Layer_1" xmlns="http://www.w3.org/2000/svg" xmlns:xlink="http://www.w3.org/1999/xlink" x="0px" y="0px"
	 viewBox="0 0 535 842" style="enable-background:new 0 0 535 842;" xml:space="preserve">
<style type="text/css">
	.st0{fill:#FCC89C;stroke:#000000;stroke-width:5;stroke-miterlimit:10;}
	.st1{fill:#41BA90;stroke:#000000;stroke-width:5;stroke-miterlimit:10;}
	.st2{fill:#644D3B;stroke:#000000;stroke-width:5;stroke-miterlimit:10;}
	.st3{fill:#FFFFFC;stroke:#000000;stroke-width:5;stroke-miterlimit:10;}
	.st4{fill:#E02827;stroke:#000000;stroke-width:5;stroke-miterlimit:10;}
	.st5{fill:#ADADAD;stroke:#000000;stroke-width:5;stroke-miterlimit:10;}
	.st6{fill:#BCC1C6;stroke:#000000;stroke-width:5;stroke-miterlimit:10;}
	.st7{fill:#231F20;stroke:#000000;stroke-width:5;stroke-miterlimit:10;}
	.st8{fill:#FCC89C;}
</style>
<g>
	<g>
		<path class="st0" d="M421.32,493.49c-51.74-22.05-84.83-46.71-85.59-84.32V273.44H199.99v135.73
			c-0.76,37.61-33.85,62.27-85.59,84.32C225.53,534,332.33,554.61,421.32,493.49z"/>
		<g>
			<path class="st1" d="M373.21,442.12c-15.82,42.84-57.07,73.47-105.34,73.47s-89.52-30.63-105.34-73.47
				c-42.68,0.37-77.17,35.07-77.17,77.83v198.8c0,43,34.86,77.85,77.85,77.85h209.34c43,0,77.85-34.86,77.85-77.85v-198.8
				C450.38,477.19,415.89,442.49,373.21,442.12z"/>
			<path class="st1" d="M267.86,515.59c48.27,0,89.52-30.63,105.34-73.47c-0.23,0-0.45-0.02-0.68-0.02H356
				c-14.92,33.87-48.76,57.52-88.14,57.52s-73.22-23.66-88.14-57.52h-16.53c-0.23,0-0.45,0.02-0.68,0.02
				C178.34,484.96,219.59,515.59,267.86,515.59z"/>
		</g>
		<path class="st2" d="M421.57,182.3c-55.08,69.97-69.71,164.98-155.71,164.98S143.54,266.27,110.15,182.3
			C56.42,47.15,133.51,19.45,265.86,17.33C410.29,15.01,526.74,48.71,421.57,182.3z"/>
		<circle class="st0" cx="140.26" cy="230.9" r="21.59"/>
		<circle class="st0" cx="395.46" cy="229.53" r="21.59"/>
		<path class="st0" d="M395.46,340.65l0-167.03l-86.83,0c-28.38-11.25-35.73-19.92-38.23-60.97c-2.5,41.05-14.94,49.71-43.32,60.97
			l-86.83,0v167.03C225.33,450.23,310.4,450.23,395.46,340.65z"/>
	</g>
	<g>
		<g>
			<path class="st3" d="M472.29,638.64V807.9c0,6.28-6.43,11.41-14.3,11.41H77.73c-7.86,0-14.3-5.14-14.3-11.41V638.64"/>
			<path class="st4" d="M63.43,638.64v-54.4c0-6.28,6.43-11.41,14.3-11.41h380.26c7.86,0,14.3,5.14,14.3,11.41v54.4"/>
		</g>
		<g>
			<path class="st5" d="M143.95,607.41H129.3c-4.86,0-8.84-3.98-8.84-8.84v-43.73c0-4.86,3.98-8.84,8.84-8.84h14.65
				c4.86,0,8.84,3.98,8.84,8.84v43.73C152.78,603.43,148.81,607.41,143.95,607.41z"/>
			<path class="st5" d="M406.43,605.99h-14.65c-4.86,0-8.84-3.98-8.84-8.84v-43.73c0-4.86,3.98-8.84,8.84-8.84h14.65
				c4.86,0,8.84,3.98,8.84,8.84v43.73C415.26,602.02,411.28,605.99,406.43,605.99z"/>
		</g>
		<g>
			<rect x="84.48" y="659.92" class="st6" width="32.26" height="32.26"/>
			<rect x="131.71" y="659.92" class="st6" width="32.26" height="32.26"/>
			<rect x="178.93" y="659.92" class="st6" width="32.26" height="32.26"/>
			<rect x="226.16" y="659.92" class="st6" width="32.26" height="32.26"/>
			<rect x="273.39" y="659.92" class="st6" width="32.26" height="32.26"/>
			<rect x="84.48" y="708.8" class="st6" width="32.26" height="32.26"/>
			<rect x="131.71" y="708.8" class="st6" width="32.26" height="32.26"/>
			<rect x="178.93" y="708.8" class="st6" width="32.26" height="32.26"/>
			<rect x="226.16" y="708.8" class="st6" width="32.26" height="32.26"/>
			<rect x="273.39" y="708.8" class="st6" width="32.26" height="32.26"/>
			<rect x="84.48" y="757.68" class="st6" width="32.26" height="32.26"/>
			<rect x="131.71" y="757.68" class="st6" width="32.26" height="32.26"/>
			<rect x="178.93" y="757.68" class="st6" width="32.26" height="32.26"/>
			<rect x="226.16" y="757.68" class="st6" width="32.26" height="32.26"/>
			<rect x="273.39" y="757.68" class="st6" width="32.26" height="32.26"/>
			<rect x="324.53" y="659.92" class="st6" width="32.26" height="32.26"/>
			<rect x="371.75" y="659.92" class="st6" width="32.26" height="32.26"/>
			<rect x="324.53" y="708.8" class="st6" width="32.26" height="32.26"/>
			<rect x="371.75" y="708.8" class="st6" width="32.26" height="32.26"/>
			<rect x="324.53" y="757.68" class="st6" width="32.26" height="32.26"/>
			<rect x="371.75" y="757.68" class="st6" width="32.26" height="32.26"/>
			<rect x="418.98" y="757.68" class="st6" width="32.26" height="32.26"/>
			<rect x="418.98" y="708.8" class="st6" width="32.26" height="32.26"/>
			<rect x="418.98" y="659.92" class="st6" width="32.26" height="32.26"/>
		</g>
	</g>
	<g>
		<g>
			<path class="st0" d="M31.33,590.39H20.7c-3.52,0-6.41-2.88-6.41-6.41v-53.5c0-3.52,2.88-6.41,6.41-6.41h10.63
				c3.52,0,6.41,2.88,6.41,6.41v53.5C37.74,587.5,34.85,590.39,31.33,590.39z"/>
			<path class="st0" d="M54.77,607.03H44.14c-3.52,0-6.41-2.88-6.41-6.41v-70.15c0-3.52,2.88-6.41,6.41-6.41h10.63
				c3.52,0,6.41,2.88,6.41,6.41v70.15C61.18,604.15,58.3,607.03,54.77,607.03z"/>
			<path class="st0" d="M78.21,616.89H67.59c-3.52,0-6.41-2.88-6.41-6.41v-80c0-3.52,2.88-6.41,6.41-6.41h10.63
				c3.52,0,6.41,2.88,6.41,6.41v80C84.62,614,81.74,616.89,78.21,616.89z"/>
			<path class="st0" d="M101.65,607.03H91.03c-3.52,0-6.41-2.88-6.41-6.41v-70.15c0-3.52,2.88-6.41,6.41-6.41h10.63
				c3.52,0,6.41,2.88,6.41,6.41v70.15C108.06,604.15,105.18,607.03,101.65,607.03z"/>
		</g>
		<g>
			<path class="st0" d="M503.67,585.46h10.63c3.52,0,6.41-2.88,6.41-6.41v-53.5c0-3.52-2.88-6.41-6.41-6.41h-10.63
				c-3.52,0-6.41,2.88-6.41,6.41v53.5C497.26,582.58,500.15,585.46,503.67,585.46z"/>
			<path class="st0" d="M480.23,602.1h10.63c3.52,0,6.41-2.88,6.41-6.41v-70.15c0-3.52-2.88-6.41-6.41-6.41h-10.63
				c-3.52,0-6.41,2.88-6.41,6.41v70.15C473.82,599.22,476.7,602.1,480.23,602.1z"/>
			<path class="st0" d="M456.79,611.96h10.63c3.52,0,6.41-2.88,6.41-6.41v-80c0-3.52-2.88-6.41-6.41-6.41h-10.63
				c-3.52,0-6.41,2.88-6.41,6.41v80C450.38,609.08,453.26,611.96,456.79,611.96z"/>
			<path class="st0" d="M433.35,602.1h10.63c3.52,0,6.41-2.88,6.41-6.41v-70.15c0-3.52-2.88-6.41-6.41-6.41h-10.63
				c-3.52,0-6.41,2.88-6.41,6.41v70.15C426.94,599.22,429.82,602.1,433.35,602.1z"/>
		</g>
	</g>
	<g>
		<g>
			<path d="M161.04,245.8c5.91-5.03,12.46-9.42,19.62-12.73l1.34-0.64l1.38-0.52l2.78-1.05c0.47-0.17,0.92-0.37,1.4-0.51l1.43-0.4
				l2.87-0.8c0.95-0.3,1.95-0.41,2.93-0.6l2.95-0.51c1.98-0.25,3.99-0.34,5.99-0.51c2,0.04,4.02,0,6.03,0.12l3.01,0.31
				c1,0.12,2.02,0.16,3,0.39l2.96,0.62l1.48,0.34c0.49,0.12,0.96,0.29,1.44,0.45l2.85,0.99l1.41,0.52l1.36,0.63l2.7,1.33l1.34,0.66
				c0.43,0.26,0.86,0.5,1.28,0.77l2.53,1.58l1.26,0.79c0.41,0.28,0.8,0.6,1.19,0.89c1.57,1.21,3.16,2.38,4.63,3.7
				c1.44,1.36,2.86,2.72,4.2,4.15l-0.31,0.4c-1.79-0.84-3.5-1.76-5.19-2.67c-0.82-0.49-1.72-0.86-2.58-1.29
				c-0.87-0.41-1.71-0.86-2.56-1.28c-3.45-1.62-6.88-3.17-10.4-4.42c-3.5-1.3-7.04-2.39-10.63-3.34c-0.89-0.3-1.8-0.42-2.71-0.61
				l-2.74-0.53c-1.84-0.25-3.7-0.34-5.56-0.53c-7.47-0.19-14.99,1.22-22.12,3.85c-7.17,2.59-13.89,6.43-20.26,10.81L161.04,245.8z"
				/>
		</g>
		<circle class="st7" cx="208.18" cy="244.51" r="13.61"/>
	</g>
	<g>
		<g>
			<path d="M374.38,246.19c-6.37-4.38-13.09-8.23-20.26-10.81c-7.13-2.63-14.65-4.04-22.12-3.85c-1.86,0.19-3.72,0.28-5.56,0.53
				l-2.74,0.53c-0.91,0.19-1.83,0.31-2.71,0.61c-3.59,0.95-7.12,2.04-10.63,3.34c-3.52,1.25-6.95,2.8-10.4,4.42
				c-0.85,0.42-1.69,0.87-2.56,1.28c-0.86,0.43-1.76,0.79-2.58,1.29c-1.7,0.91-3.4,1.83-5.19,2.67l-0.31-0.4
				c1.34-1.44,2.77-2.79,4.2-4.15c1.47-1.32,3.06-2.49,4.63-3.7c0.4-0.3,0.78-0.62,1.19-0.89l1.26-0.79l2.53-1.58
				c0.42-0.27,0.85-0.52,1.28-0.77l1.34-0.66l2.7-1.33l1.36-0.63l1.41-0.52l2.85-0.99c0.48-0.16,0.95-0.33,1.44-0.45l1.48-0.34
				l2.96-0.62c0.98-0.23,2-0.28,3-0.39l3.01-0.31c2.01-0.12,4.03-0.08,6.03-0.12c2,0.17,4.01,0.26,5.99,0.51l2.95,0.51
				c0.98,0.19,1.97,0.3,2.93,0.6l2.87,0.8l1.43,0.4c0.47,0.14,0.93,0.34,1.4,0.51l2.78,1.05l1.38,0.52l1.34,0.64
				c7.16,3.31,13.71,7.69,19.62,12.73L374.38,246.19z"/>
		</g>
		<circle class="st7" cx="327.54" cy="244.51" r="13.61"/>
	</g>
	<g>
		<path d="M198.55,343.87c9.89,9.5,20.09,18.45,31.52,24.9c2.85,1.6,5.8,2.98,8.75,4.28c1.5,0.6,3,1.16,4.51,1.7l2.3,0.69
			c0.76,0.24,1.52,0.47,2.31,0.63c6.16,1.6,12.51,2.28,18.84,1.89c6.34-0.29,12.65-1.66,18.8-3.69c6.19-1.94,12.14-4.78,18.01-7.86
			c2.95-1.52,5.77-3.3,8.64-5.03c1.41-0.9,2.85-1.76,4.26-2.69l4.19-2.83c5.59-3.81,10.99-7.94,16.53-12.03l0.35,0.36
			c-4.88,4.78-9.93,9.39-15.22,13.72c-5.3,4.32-10.87,8.31-16.72,11.87c-5.85,3.54-12.01,6.62-18.47,8.93
			c-6.46,2.3-13.22,3.83-20.09,4.24c-6.87,0.33-13.79-0.47-20.4-2.35c-6.63-1.85-12.88-4.84-18.67-8.5
			c-11.61-7.35-21.31-17.27-29.82-27.93L198.55,343.87z"/>
	</g>
	<g>
		<path class="st8" d="M250.8,312.1c17.56,6.6,28.99-0.26,34.65-19.8"/>
		<path d="M250.88,311.87c4.24-0.32,7.99-0.38,11.33-0.95c0.21-0.03,0.42-0.05,0.62-0.08l0.6-0.16l1.18-0.25
			c0.78-0.19,1.49-0.47,2.23-0.67c0.68-0.33,1.4-0.54,2.05-0.89c0.32-0.18,0.65-0.35,0.98-0.51c0.16-0.09,0.33-0.16,0.49-0.25
			l0.45-0.33c2.49-1.58,4.8-3.81,7.09-6.52c2.31-2.7,4.5-5.81,7.3-9.02l0.48,0.14c-0.56,1.87-1.08,3.75-1.81,5.57
			c-0.18,0.46-0.34,0.92-0.53,1.37l-0.63,1.33l-0.63,1.33c-0.22,0.44-0.48,0.85-0.72,1.28c-1.93,3.41-4.51,6.56-7.87,8.73
			l-0.62,0.41c-0.22,0.12-0.45,0.22-0.67,0.33l-1.35,0.65c-0.91,0.39-1.88,0.65-2.83,0.96c-0.98,0.16-1.95,0.41-2.94,0.49
			l-1.48,0.09l-0.74,0.04c-0.25,0-0.49-0.02-0.74-0.04c-1.98-0.06-3.93-0.35-5.84-0.79c-0.94-0.27-1.91-0.48-2.83-0.81l-2.76-0.99
			L250.88,311.87z"/>
	</g>
</g>
</svg>
